<?xml version="1.0" encoding="UTF-8"?>
<svg version="1.1" viewBox="0 0 1074 833" width="1280" height="1280" xmlns="http://www.w3.org/2000/svg">
<path transform="translate(502,5)" d="m0 0 33 1 30 2 6 1v1l-5 1-49 3-53 5-40 6-28 5-36 8-25 7-7 2-20 6-33 12-25 11v4l-5-1-25 12-16 9-24 16-15 11-2 3-5 3-12 11h-2v2l-8 7-8 9v2l-4 2-11 14-11 16-9 16-8 16-5 15v7l-3 2-4 17-2 15v30l2 17 3 15v4h2l4 16 6 15 13 25 16 22 12 14 17 17 11 9 7 4 5 5 14 10 21 12 6 3 5 1v-81h-22l-1-1v-150l1-2 22-1-1-20 1-56h14l1 5v70l1 1h16 3l2 3v150l-4 2-18-1v91l9 3 15 6 30 10 16 4 6 1-1-33 1-128h-20l-2-1v-183l51-1 8 1 1 58v85l-1 40-1 1h-21l1 165 40 6 28 3h7v-221l-21-1-1-80 1-16 18-1 3-1v-68l1-19h14l1 22-1 66 22 1 1 1v94l-1 1-16 1-6-1 1 7v171l-1 46h77l-1-48 1-98h-21l-1-1-1-72v-170l1-20h22v-55l1-1h14l1 56h20l1 1 1 20-1 241-1 1h-20v144l16-1 41-6 18-4v-240l-1-1-21-1v-133l1-1 31-1 27 1 1 1v128l-1 5-21 1v237l19-5 27-9 28-12 1-5v-171l1-58h-22l-1-28v-85l1-64h22l-1-20 1-29 5-1h7l3 2v48h21l1 1v174l-1 2h-21v225l22-12 23-16 14-11 12-11 13-12 12-13 7-9 5-6 2 1-4 10-11 20-14 20-9 12-16 17-11 11-8 7-13 10-18 13-19 12-16 8-28 13-19 7-22 7-29 7-23 5-32 4-26 2-25 1h-37l-46-3-31-3h-7l-18-4-31-6-24-6-14-4-26-9-26-11-25-12-6-3-19-12-12-8-14-10-3-2v-2l-4-2-15-14-8-7-7-8-5-5-11-14-13-18-7-12-2-2-4-10-8-18-7-21-5-24-2-12v-46l4-26 4-16 7-21 8-18 13-23 13-19 9-11 9-10 4-5h2l2-4 16-15 13-11 16-12 21-14 4-3 1-4 4 1 16-8 19-9 15-7 25-10 6-3 25-7 28-8 31-7 38-6 35-4 41-3z" fill="#44A41C"/>
<path transform="translate(948,137)" d="m0 0h2l4 15 20 90 7 30 21 94 2 9v4l-6-2-16-8-23-11-4 18-8 27-11 30-11 25-11 21-16 26-10 14-11 14-13 15-23 23-15 13-20 15-17 11-21 12-11 6-21 10-29 11-25 8-26 7-36 7-27 4-5 1-18 1-38 2h-34l-42-2-32-3-4-1-1 3-3-3-39-6-45-9-43-11-39-12-32-12-31-13-24-11-14-8-22-13-17-12-11-9-6-5 2-1 23 11 28 12 35 13 25 8 29 8 16 4 36 8 41 7 36 4 23 2 19 1h67l49-4 33-5 29-6 36-10 29-10 16-7 23-11 18-10 14-9 14-10 13-10 13-12 8-7 9-9 9-11 7-8 13-18 12-20 9-17 10-23 7-21v-2h2l1-7 6-24 3-16-11 1-60 9h-5l1-4 10-13 9-11 12-15 22-28 9-12 7-8 10-13 9-11 14-18 11-14 13-16 10-13 8-10 1-3h2l2-4 8-9z" fill="#014188"/>
<path transform="translate(502,5)" d="m0 0 33 1 30 2 6 1v1l-5 1-49 3-53 5-40 6-28 5-36 8-25 7-7 2-20 6-33 12-25 11v4l-5-1-25 12-16 9-24 16-15 11-2 3-5 3-12 11h-2v2l-8 7-8 9v2l-4 2-11 14-11 16-9 16-8 16-5 15v7l-3 2-4 17-2 15v30l2 17 3 15v4h2l4 16 6 15 13 25 16 22 12 14 17 17 11 9 7 4 5 5 14 10 21 12 6 3 5 1v-81h-22l-1-1v-150l1-2 22-1-1-20 1-56h14l1 5v70l1 1h16 3l2 3v150l-4 2-18-1v91l9 3 15 6 30 10 16 4 6 1-1-33 1-128h-20l-2-1v-183l51-1 8 1 1 58v85l-1 40-1 1h-21l1 165 40 6 28 3h7v-221l-21-1v-6l1 4h21l1 1v225h-12l-36-4-16-1-14-3-2-2-1-16v-141l1-10 2-2h20l-1-178-3-1-43 1-6 1v176l19 1 2 2v162l-2 3-11-1-19-5-10-3-6-2h-5l1 6v15l-1 14-1 4 4 2v2l3-1 7 2 9 3 18 4 8 1 1 1 26 4 28 4 34 3 21 1h51l33-2 34-4 31-6 26-7 26-8 10-3 1-2 9-3 6-1-3 2-11 5-20 7-18 6-29 7-23 5-32 4-26 2-25 1h-37l-46-3-31-3h-7l-18-4-31-6-24-6-14-4-26-9-26-11-25-12-6-3-19-12-12-8-14-10-3-2v-2l-4-2-15-14-8-7-7-8-5-5-11-14-13-18-7-12-2-2-4-10-8-18-7-21-5-24-2-12v-46l4-26 4-16 7-21 8-18 13-23 13-19 9-11 9-10 4-5h2l2-4 16-15 13-11 16-12 21-14 4-3 1-4 4 1 16-8 19-9 15-7 25-10 6-3 25-7 28-8 31-7 38-6 35-4 41-3z" fill="#46A51D"/>
<path transform="translate(332,191)" d="m0 0 11 1 1 58v85l-1 40-1 1h-21l1 165 40 6 28 3h7v-221l-21-1v-6l1 4h21l1 1v225h-12l-36-4-16-1-14-3-2-2-1-16v-141l1-10 2-2h20l-1-178-3-1-43 1-6 1v176l19 1 2 2v162l-2 3-11-1-19-5-10-3-6-2h-5l1 6v15l-1 14-1 4 4 2v2l3-1 7 2 9 3 18 4 8 1 1 1 26 4 28 4 34 3 21 1h51l33-2 34-4 31-6 26-7 26-8 10-3 1-2 9-3 6-1-3 2-11 5-20 7-18 6-29 7-23 5-32 4-26 2-25 1h-37l-46-3-31-3h-7l-18-4-31-6-24-6-14-4-26-9-26-11-25-12-6-3-19-12-12-8-14-10-3-2v-2l-4-2-15-14-8-7-7-8-5-5-11-14-13-18-1-4 3 2-1-6 5 3 4 1-2 8 6-1 3 13 6 9 6 7v2h2l7 8 6 6v2h2v2l4 2v2l4 2 10 9 11 8 15 11 22 13 19 10 5 1 13 6 15 6 12 5 17 6 4 1v-6h-5l2-1-1-4 1-31 1-2 3-1-6-1-15-6-2-2v-93l3-2h19l-1-147-19-1-2-2-1-66 1-8h-9l-1 74-3 3h-17l-1 147h20l2 3v77l-1 8-3 1-10-4-11-6-10-7v-2l-4-2-9-6-18-14-15-13-10-10-7-8-13-16-9-14-3-5-4-7-7-14-11-28-2-5-1 3-5-2 1-9-2-3 2-5-1-6 1-1v-7l-2-7-2-10-1-2v-7h2l-1-2v-7l4-10 1 2h2v-10l1-1v-11h3l2-7 5-12 5-13 5-5-1 5-7 16-2 7v7l-3 2-4 17-2 15v30l2 17 3 15v4h2l4 16 6 15 13 25 16 22 12 14 17 17 11 9 7 4 5 5 14 10 21 12 6 3 5 1v-81h-22l-1-1v-150l1-2 22-1-1-20 1-56h14l1 5v70l1 1h16 3l2 3v150l-4 2-18-1v91l9 3 15 6 30 10 16 4 6 1-1-33 1-128h-20l-2-1v-183z" fill="#71B44B"/>
<path transform="translate(948,137)" d="m0 0 2 1-2 7-16 64-16 63-3 5-23 12-16 9-10 6-14 6h-10l-16-7-1-5-2 1 2-4 11-14 9-12 7-8 10-13 9-11 14-18 11-14 13-16 10-13 8-10 1-3h2l2-4 8-9z" fill="#0386D4"/>
<path transform="translate(822,568)" d="m0 0h2l1 2 7 2 5-1-1 4-10 9-20 15-17 11-21 12-11 6-21 10-29 11-25 8-26 7-36 7-27 4-5 1-18 1-38 2h-34l-42-2-1-1-16-2v-1l54-1 40-2 36-4 36-6 32-7 27-8 26-9 36-15 16-8 23-12 18-11 14-9 11-7h3l2-4z" fill="#081E6E"/>
<path transform="translate(134,728)" d="m0 0h52l10 3 8 6 4 6 2 8v9l-4 11-8 7-6 2 13 20 7 11v2h-19l-8-11-10-16-2-3-21-1v30l-1 1h-17l-1-1v-83zm18 17v20h33l5-4 1-2v-8l-4-5-3-1z" fill="#06498A"/>
<path transform="translate(463,7)" d="m0 0h57l34 2v1l-56 4-46 5-44 7-14 3-3 2h-8l-28 6-23 6-26 8-26 9-16 7-8 2-3-3 1-3h2v-9l1-8h3l-1-3 6-4 13-3 8-3 19-5 26-6 10-2 4-1 15-3 41-5 37-3z" fill="#45A41C"/>
<path transform="translate(860,728)" d="m0 0h52l10 3 6 4 5 6 3 8v12l-3 8-4 6-8 5h-2l5 9 13 20 1 4h-19l-20-30-21-1v31h-18zm18 17v20h33l5-3 2-7-2-6-5-4z" fill="#04488C"/>
<path transform="translate(169,79)" d="m0 0h3v2l-5 3-5 4h-2v2l-11 8-10 9-11 9-23 23-9 11-12 15-14 20-12 21-8 17-9 24-4 14-4 18-3 24v30l2 21 5 26 8 27 4 11 1 1v5l-3-4-5-10-3-3-8-19-6-19-5-23-2-12-1-14v-31l4-26 4-16 7-21 8-18 13-23 13-19 9-11 9-10 4-5h2l2-4 16-15 13-11 16-12 7-5 6-2 9-6z" fill="#389407"/>
<path transform="translate(355,728)" d="m0 0h42l16 4 10 7 7 8 5 12 1 6v11l-3 12-5 9-4 5-11 7-9 3-6 1h-43zm18 17v51h25l9-4 5-4 4-7 1-4v-13l-3-8-5-6-8-4-4-1z" fill="#03488C"/>
<path transform="translate(468,728)" d="m0 0h68v17h-50v17h44v17h-44v17h50v17h-68l-1-1v-83z" fill="#064B8B"/>
<path transform="translate(1e3 727)" d="m0 0h14l12 3 8 4 10 9 5 8 3 10v19l-4 12-6 8-9 8-9 4-10 2h-14l-13-3-9-5-7-6-6-10-3-10v-19l4-12 6-8 9-8 13-5zm-1 17-10 5-6 7-3 8v13l4 10 7 7 8 3 9 1 11-2 8-6 4-5 3-9v-11l-4-11-8-7-8-3z" fill="#04488D"/>
<path transform="translate(269,728)" d="m0 0h24l4 9 22 55 7 18v3h-19l-5-11h-42l-4 10-1 1h-19l1-6 11-27 16-41zm11 21-13 33v2h28l-3-10-10-25z" fill="#074A8E"/>
<path transform="translate(566,728)" d="m0 0h22l9 10 11 14h2l8-9 9-11 4-4h21l1 2-9 11-14 17-7 9 1 4 14 17 11 13 7 9v3h-22l-9-10-8-10-7-9-5 5-8 9-9 11-4 4h-21l-1-2 9-11 14-17 9-11 2-4-7-9-14-17-9-11z" fill="#06498C"/>
<path transform="translate(754,728)" d="m0 0h51l13 4 5 4 5 8 1 3v16l-5 10-8 6-9 3h-36v31h-18v-84zm17 17v20l1 1h29l7-3 3-4v-8l-4-5-2-1z" fill="#03478C"/>
<path transform="translate(490,87)" d="m0 0h14l1 56h20l1 1 1 20-1 241-1 1h-20v144l16-1 41-6 18-4v-240l-1-1-21-1v-133l1-1 31-1 27 1 1 1v128l-1 5-22 1v-2h21v-131l-56 1v129l21 1 1 2v242l-3 2-21 4-35 5-10 1h-10v-147l1-1h21l-1-259-21-1v-55l-12-1-1 56-22 1v259h21l1 1v148l-7 1h-70l-2-1v-226l1-1h21v-93h-21l-1-1v-88h-12v87l-2 2h-20l-1 2v-3l18-1 3-1v-68l1-19h14l1 22-1 66 22 1 1 1v94l-1 1-16 1-6-1 1 7v171l-1 46h77l-1-48 1-98h-21l-1-1-1-72v-170l1-20h22v-55z" fill="#67AE3F"/>
<path transform="translate(23,728)" d="m0 0h81l1 1v15l-1 1h-31v67l-1 1h-17l-1-1v-67h-31l-1-1v-15z" fill="#074B89"/>
<path transform="translate(822,568)" d="m0 0h2l1 2 7 2 5-1-1 4-10 9-20 15-17 11-21 12-11 6-21 10-10 4-3-1 3-2v-2l-4 1-9 1-5-3h-12l-5 2-4-1 25-10 18-8 16-8 19-10 18-11 14-9 11-7h3l2-4z" fill="#042571"/>
<path transform="translate(502,5)" d="m0 0 33 1 30 2 6 1v1l-5 1-49 3-53 5-40 6-28 5-3-1 5-2 40-7 40-5 32-3 30-2-2-1-18-1h-57l-38 2-42 4-35 5-3 1-36 8-20 5-10 3-9 3-7 2-3 3v2h-3l-1 17h-2l1 4 2 1 14-5 11-5 24-8 26-8 32-8 19-4h3v2l-30 7-28 8-20 6-33 12-25 11v4l-5-1-25 12-16 9-24 16-15 11-2 3-5 3-12 11h-2v2l-8 7-8 9v2l-4 2-11 14-11 16-9 16-2 2-1-3 5-10 7-10 8-12 12-14 11-12 15-15 8-7 14-11 14-10h2l1-3h2v-2l19-12 19-10 14-7 8-3 2-2-5-1-1-20 2-3h4v-2l-7 2-13 5-15 6-30 15-6 2-5 2-18 10-5 2 4-4 6-4 1-4 4 1 16-8 19-9 15-7 25-10 6-3 25-7 28-8 31-7 38-6 35-4 41-3zm-352 84 2 1-3 3-3-1z" fill="#6BB043"/>
<path transform="translate(858,254)" d="m0 0v3l-3 5 15 5 10 4 4 4 10 3 2 2 7-1 10-5 2-2-1 4-22 12-18 10-10 6-14 6h-10l-16-7-1-5-2 1 2-4 11-14 9-12 7-8z" fill="#0267B9"/>
<path transform="translate(795,410)" d="m0 0 2 1-4 10-11 20-14 20-9 12-16 17-10 10-5-1v-2h2l-3-6-1-5 2 1 2-1-1-2-3 1v-2l6-4h-3l-3-1 12-9 4-5 11-9 8-8 8-7 14-15 7-9z" fill="#19900A"/>
<path transform="translate(333,192)" d="m0 0h10l1 58v85l-1 40-1 1h-21l1 165 40 6 28 3h7v-221l-21-1v-6l1 4h21l1 1v225h-12l-36-4-16-1-14-3-2-2-1-16v-141l1-10 2-2h20l-1-178-7-2z" fill="#66AE3E"/>
<path transform="translate(398,143)" d="m0 0h14l1 22-1 66 22 1 1 1v94l-1 1-16 1-6-1 1 7v171l-1 46h77l-1-48 1-98h-21l-1-1-1-72v-170l1-20h20v1l-19 1v259h21l1 1v148l-7 1h-70l-2-1v-226l1-1h21v-93h-21l-1-1v-88h-12v87l-2 2h-20l-1 2v-3l18-1 3-1v-68z" fill="#66AE3E"/>
<path transform="translate(785,47)" d="m0 0 3 3 4 13 4 6 5 4 18 5-1 2-18 6-6 5-4 9-3 11h-2l-5-16-4-6-6-4-16-5v-2l5-2 9-2 6-3 6-7z" fill="#0F8C04"/>
<path transform="translate(89,215)" d="m0 0 1 3-7 15-3 10v7l-3 2-4 17-2 15v30l2 17 3 15v4h2l4 16 6 15 13 25 16 22 12 14 17 17 11 9 7 4 5 5 10 7v2l-5-2-13-10-10-8-14-12-10-10-7-8-13-16-9-14-3-5-4-7-7-14-11-28-2-5-1 3-5-2 1-9-2-3 2-5-1-6 1-1v-7l-2-7-2-10-1-2v-7h2l-1-2v-7l4-10 1 2h2v-10l1-1v-11h3l2-7 5-12 5-13z" fill="#6AB043"/>
<path transform="translate(340,76)" d="m0 0 2 2 3 11 4 6 4 3 13 4v2l-14 5-5 4-4 10-2 7-2-2-3-10-6-8-10-4-6-2 1-2 14-5 3-1 2-7 2-1 3-11z" fill="#46A51D"/>
<path transform="translate(673,50)" d="m0 0h12v45h2v3h21l1 1v174h-23l-3-2v3l-3 1-1 2-2-1 3-6h6l6 1h14v-168l1-2h-23l-1-50-7 1-1 2-1 44h-1z" fill="#2F9819"/>
<path transform="translate(588,162)" d="m0 0 29 1 1 1v128l-1 5-22 1v-2h21v-131l-56 1-1 129h-1v-131l1-1z" fill="#87BF68"/>
<path transform="translate(687,273)" d="m0 0h21v2h-21v225l9-5 2 1-7 5-5 1-1-1v-226z" fill="#A3CE8B"/>
<path transform="translate(560,165)" d="m0 0h56v131h-21v-1l7-1 1-1h9l1-2v-85l-1-31 1-1v-5l-6-2-46-1-1 2z" fill="#248F03"/>
<path transform="translate(53,426)" d="m0 0 5 3 4 1-2 8 6-1 3 13 6 9 6 7v2h2l7 8 6 6v2h2v2l4 2v2l4 2 10 9 11 8 15 11 22 13 4 3-1 2-9-5-25-16-15-11-3-2v-2l-4-2-15-14-8-7-7-8-5-5-11-14-13-18-1-4 3 2z" fill="#6DB146"/>
<path transform="translate(588,85)" d="m0 0h2l3 10 4 4 9 3v2l-10 4-4 6-2 7h-2l-3-10-4-4-9-3v-2l11-4 4-9z" fill="#3DA01C"/>
<path transform="translate(141,242)" d="m0 0 2 1 3 7 1 3 12 5-2 2-9 4-4 6-2 6-2-2-3-10-5-2-8-3 3-2 9-4z" fill="#46A51D"/>
<path transform="translate(543,7)" d="m0 0 22 1 6 1v1l-5 1-49 3-53 5-40 6-28 5-3-1 5-2 40-7 40-5 32-3 30-2 3-1z" fill="#70B34A"/>
<path transform="translate(376,322)" d="m0 0 1 4h21l1 1v225h-12v-1l10-1v-221l-21-1z" fill="#66AE3E"/>
<path transform="translate(184,110)" d="m0 0v3l-19 14-2 3-5 3-12 11h-2v2l-8 7-8 9v2l-4 2-11 14-11 16-9 16-2 2-1-3 5-10 7-10 8-12 12-14 11-12 15-15 8-7 14-11z" fill="#73B54E"/>
<path transform="translate(239,45)" d="m0 0 2 1-2 3-23 9-30 15-6 2-5 2-18 10-5 2 4-4 6-4 1-4 4 1 16-8 19-9 15-7zm-89 44 2 1-3 3-3-1z" fill="#72B44C"/>
<path transform="translate(500,459)" d="m0 0h1v71l-1 15-4-1 1-16h3l-1-20-2 3-4-2v-8l6-6v-3l-3 3-3-2v-9h3l1-2h2z" fill="#389303"/>
<path transform="translate(525,403)" d="m0 0v3h-20v100l-1 44h-1v-145l1-1z" fill="#65AD3C"/>
<path transform="translate(340,76)" d="m0 0 2 2 3 11 1 3-3-1-4-4-2 6h-2l-1 4-7 5h-3l1 2 9 5 5 8v2l-4-2-5-7-10-4-6-2 1-2 14-5 3-1 2-7 2-1 3-11z" fill="#71B34B"/>
<path transform="translate(141,242)" d="m0 0 2 1 3 7 1 3 12 5-2 2-9 4-4 6-2 6-2-2-3-10-5-2-8-3 3-2 9-3-4 5 6 4 4 5 4-6 5-3-7-6-2-4-5 4 3-9z" fill="#79B856"/>
<path transform="translate(376,322)" d="m0 0 1 4h21l1 1v90h-1l-1-88-21-1z" fill="#64AD3B"/>
<path transform="translate(673,50)" d="m0 0h12v45h2v3h21v1h-22l-2-1-1-47-7 1-1 2-1 44h-1z" fill="#1F910E"/>
<path transform="translate(320,534)" d="m0 0h1l1 7 40 6 28 3v1h-14l-25-3-16-1-14-3-2-4z" fill="#7AB856"/>
<path transform="translate(346,93)" d="m0 0 7 5 13 4v2l-14 5-5 4-4 10-2 7-2-2-1-6 1-1 2-1v-2h2l2-6 5-5 9-4-9-4-5-5z" fill="#6CB145"/>
<path transform="translate(500,423)" d="m0 0h1v27h-1v-9h-2l-1 5-4-2v-11l2-3h2l1-2 1 4z" fill="#389303"/>
<path transform="translate(120,168)" d="m0 0v3l-10 13-10 15-8 15-2-1 3-9 9-13 8-12z" fill="#69AF41"/>
<path transform="translate(521,557)" d="m0 0 3 1 3 11-1 13-1 2-3-1v-3h2v-3h-2z" fill="#389303"/>
<path transform="translate(592,95)" d="m0 0 5 4 9 3v2l-10 4-4 6-2 7h-2l-3-10-4-5h3l4 6v3h2l2-6 5-4 5-1v-2h-7l-3-5z" fill="#6AB24C"/>
<path transform="translate(340,76)" d="m0 0 2 2 3 11 1 3-3-1-4-4-2 6h-2l-1 4-4 3-2-1 2-3h2l2-7 2-1 3-11z" fill="#75B650"/>
<path transform="translate(543,7)" d="m0 0 22 1 6 1v1l-5 1-17 1h-11l2-2 3-1z" fill="#78B754"/>
<path transform="translate(785,47)" d="m0 0 3 3 4 13 4 6 4 3-1 2-7-6-2-6-2-1-2-9-3 12v2h-2l-1 4-5 1 5-7z" fill="#61AC3E"/>
<path transform="translate(770,73)" d="m0 0h2v2l-8 3h-6v2l8 1 10 5 3 3-1 2-6-5-18-6v-2l5-2 9-2z" fill="#68B049"/>
<path transform="translate(41,409)" d="m0 0 3 3 6 11 1 3h2l2 6-2 1-6-8-4-5z" fill="#339B23"/>
<path transform="translate(801,74)" d="m0 0 10 2 8 2-1 2-18 6-7 5 2-4 3-3 5-1 1-2 9-1v-2l-8-1z" fill="#63AE44"/>
<path transform="translate(137,517)" d="m0 0 12 7 15 9 4 3-1 2-9-5-20-13z" fill="#76B652"/>
<path transform="translate(383,30)" d="m0 0h3v2l-30 7-4 1 1-3 16-4z" fill="#70B34A"/>
<path transform="translate(376,322)" d="m0 0 1 4h21l1 1v9h-2v-7l-21-1z" fill="#6DB247"/>
<path transform="translate(525,403)" d="m0 0v3h-20v12h-2v-13l1-1z" fill="#69AF41"/>
<path transform="translate(346,93)" d="m0 0 7 5 13 4v2l-12 4 1-3 4-2-9-4-5-5z" fill="#73B54E"/>
<path transform="translate(174,75)" d="m0 0 1 2-18 10-5 2 4-4 6-4 1-4 4 1zm-24 14 2 1-3 3-3-1z" fill="#74B650"/>
<path transform="translate(89,215)" d="m0 0 1 3-7 15-2 6h-2l1-6 5-13z" fill="#71B44C"/>
<path transform="translate(769,619)" d="m0 0 3 1-11 6-16 8-3-1 23-12z" fill="#2774AA"/>
<path transform="translate(795,410)" d="m0 0 2 1-4 10-5 9-1-2 5-11-6 7-2-1z" fill="#6DB251"/>
<path transform="translate(137,251)" d="m0 0 2 1-2 1zm-1 2m-2 1 2 1-4 4 6 4 2 5h-2l-1-4-5-2-8-3 3-2z" fill="#80BC5F"/>
<path transform="translate(631,809)" d="m0 0 3 1 20 1 1-2 1 4h-22z" fill="#338C82"/>
<path transform="translate(629,527)" d="m0 0h3v2h-2l-1 3-9 2h-5l-1-2 7-2z" fill="#2F9509"/>
<path transform="translate(184,110)" d="m0 0v3l-19 14-1 2-3-1 9-8z" fill="#72B44D"/>
<path transform="translate(792,91)" d="m0 0 1 2-4 11-2 7h-2l-5-17h2l3 8v4h2l1-7z" fill="#69B148"/>
<path transform="translate(680,527)" d="m0 0 1 2 3 1 1 4-5 2-6-2 1-4 5-1z" fill="#108C04"/>
<path transform="translate(101,194)" d="m0 0 1 2-9 16-2 2-1-3 5-10z" fill="#73B54E"/>
<path transform="translate(484,250)" d="m0 0 2 1v15l-3 1v-16z" fill="#389303"/>
<path transform="translate(631,728)" d="m0 0h21l1 2-2 2v-2h-22z" fill="#3A8F82"/>
<path transform="translate(160,471)" d="m0 0 4 1 5 5 10 7v2l-5-2-13-10z" fill="#71B44C"/>
<path transform="translate(485,286)" d="m0 0 3 2-1 8-2 2-2-2v-8h2z" fill="#389303"/>
<path transform="translate(109,120)" d="m0 0 2 1-7 8-9 7-3 3-2-1 7-7 8-7z" fill="#6FB44A"/>
<path transform="translate(782,426)" d="m0 0v3l-3 4-12 12-2-1 9-9 7-8z" fill="#4CA52C"/>
<path transform="translate(749,481)" d="m0 0 2 1-15 15v-3l3-4 1-3 4-1z" fill="#5FAD3A"/>
<path transform="translate(162,126)" d="m0 0m-1 1m-1 1 3 2-5 3-11 10v-3l10-10z" fill="#7CB959"/>
<path transform="translate(495,91)" d="m0 0h5v3h-3l1 6-5-2 1-5z" fill="#389303"/>
<path transform="translate(483,582)" d="m0 0 4 1 4 8h-3v-2l-6-1z" fill="#389303"/>
<path transform="translate(677,497)" d="m0 0 4 1 1 5 4 2-3 2-4-2-2-5z" fill="#0E8B03"/>
<path transform="translate(765,462)" d="m0 0v3l-7 9-6 5 2-4z" fill="#63AE3B"/>
<path transform="translate(47,423)" d="m0 0h4v3h2l2 6-2 1-6-8z" fill="#2F9916"/>
<path transform="translate(48,415)" d="m0 0 5 2 1 8-3 1-3-8z" fill="#62AC39"/>
<path transform="translate(141,242)" d="m0 0 2 1 3 7h-3l-2-1-1 2h-2l1-4z" fill="#7BB959"/>
<path transform="translate(783,55)" d="m0 0h1l-1 11h-2l-1 4-5 1 5-7z" fill="#68B24A"/>
<path transform="translate(74,156)" d="m0 0 2 1-10 13-2 1 2-5z" fill="#7BBA59"/>
<path transform="translate(493,451)" d="m0 0 3 2v5l-4 2v-7z" fill="#389303"/>
<path transform="translate(354,105)" d="m0 0m-3 1h3v2l-7 5-2 4-2-1 3-6z" fill="#64AD3B"/>
<path transform="translate(588,85)" d="m0 0h2l1 6-3 3-2 3-2-1 3-7z" fill="#7DBB5B"/>
<path transform="translate(364,34)" d="m0 0m-5 1h5v2l-12 3 1-3z" fill="#75B650"/>
<path transform="translate(684,102)" d="m0 0 2 1-4 9h-1l-1-8z" fill="#0D8B03"/>
<path transform="translate(77,333)" d="m0 0h3l-1 3-2-1z" fill="#64AD3B"/>
<path transform="translate(673,758)" d="m0 0h2v3h-2z" fill="#7DBA5B"/>
<path transform="translate(759,673)" d="m0 0 2 2-3 1z" fill="#64AD3B"/>
<path transform="translate(673,673)" d="m0 0h2v3h-2z" fill="#7DBA5B"/>
<path transform="translate(588,588)" d="m0 0h2v3h-2z" fill="#64AD3B"/>
<path transform="translate(418,418)" d="m0 0h2l-1 3-2-2z" fill="#64AD3B"/>
<path transform="translate(163,333)" d="m0 0h2l-1 3-2-2z" fill="#64AD3B"/>
<path transform="translate(1014,673)" d="m0 0 2 2h-3z" fill="#64AD3B"/>
<path transform="translate(929,673)" d="m0 0 2 2h-3z" fill="#64AD3B"/>
<path transform="translate(333,673)" d="m0 0 2 2h-3z" fill="#64AD3B"/>
<path transform="translate(248,673)" d="m0 0 2 2h-3z" fill="#64AD3B"/>
<path transform="translate(163,673)" d="m0 0 2 2h-3z" fill="#64AD3B"/>
<path transform="translate(78,673)" d="m0 0 2 2h-3z" fill="#64AD3B"/>
<path transform="translate(844,673)" d="m0 0 1 3h-2z" fill="#82BD61"/>
<path transform="translate(929,588)" d="m0 0 2 2h-3z" fill="#64AD3B"/>
<path transform="translate(248,588)" d="m0 0 2 2h-3z" fill="#64AD3B"/>
<path transform="translate(78,588)" d="m0 0 2 2h-3z" fill="#64AD3B"/>
<path transform="translate(1014,503)" d="m0 0 2 2h-3z" fill="#64AD3B"/>
<path transform="translate(929,503)" d="m0 0 2 2h-3z" fill="#64AD3B"/>
<path transform="translate(418,503)" d="m0 0 2 2h-3z" fill="#64AD3B"/>
<path transform="translate(248,503)" d="m0 0 2 2h-3z" fill="#64AD3B"/>
<path transform="translate(78,503)" d="m0 0 2 2h-3z" fill="#64AD3B"/>
<path transform="translate(333,503)" d="m0 0h2l-1 3z" fill="#64AD3B"/>
<path transform="translate(1014,418)" d="m0 0 2 2h-3z" fill="#64AD3B"/>
<path transform="translate(163,418)" d="m0 0 2 2h-3z" fill="#64AD3B"/>
<path transform="translate(758,418)" d="m0 0h2l-1 3z" fill="#64AD3B"/>
<path transform="translate(333,418)" d="m0 0h2l-1 3z" fill="#64AD3B"/>
<path transform="translate(1013,333)" d="m0 0h2l-1 3z" fill="#64AD3B"/>
<path transform="translate(163,247)" d="m0 0 2 3-2 1z" fill="#64AD3B"/>
<path transform="translate(1013,163)" d="m0 0 3 1-3 1z" fill="#64AD3B"/>
<path transform="translate(247,163)" d="m0 0h3v2l-3-1z" fill="#64AD3B"/>
<path transform="translate(162,163)" d="m0 0h3v2l-3-1z" fill="#64AD3B"/>
<path transform="translate(418,77)" d="m0 0 2 1v2h-2z" fill="#64AD3B"/>
<path transform="translate(333,77)" d="m0 0 2 1v2h-2z" fill="#64AD3B"/>
<path transform="translate(78,77)" d="m0 0 2 2h-3z" fill="#64AD3B"/>
<path transform="translate(844,758)" d="m0 0v3z" fill="#64AD3B"/>
<path transform="translate(333,758)" d="m0 0 2 2-2 1z" fill="#64AD3B"/>
<path transform="translate(248,758)" d="m0 0v3z" fill="#64AD3B"/>
<path transform="translate(1014,588)" d="m0 0v3z" fill="#64AD3B"/>
<path transform="translate(844,588)" d="m0 0v3z" fill="#64AD3B"/>
<path transform="translate(758,503)" d="m0 0h2v2h-2z" fill="#64AD3B"/>
<path transform="translate(758,333)" d="m0 0h2v2h-2z" fill="#64AD3B"/>
<path transform="translate(418,333)" d="m0 0h2v2h-2z" fill="#64AD3B"/>
<path transform="translate(1014,248)" d="m0 0v3z" fill="#64AD3B"/>
<path transform="translate(843,248)" d="m0 0h2v2h-2z" fill="#64AD3B"/>
<path transform="translate(758,248)" d="m0 0h2v2h-2z" fill="#64AD3B"/>
<path transform="translate(248,248)" d="m0 0h2v2h-2z" fill="#64AD3B"/>
<path transform="translate(843,163)" d="m0 0h2v2h-2z" fill="#64AD3B"/>
<path transform="translate(758,163)" d="m0 0h2v2h-2z" fill="#64AD3B"/>
<path transform="translate(418,163)" d="m0 0h2v2h-2z" fill="#64AD3B"/>
<path transform="translate(333,163)" d="m0 0h2v2h-2z" fill="#64AD3B"/>
<path transform="translate(1014,77)" d="m0 0v3z" fill="#64AD3B"/>
<path transform="translate(843,78)" d="m0 0h2v2h-2z" fill="#64AD3B"/>
<path transform="translate(588,78)" d="m0 0h2v2h-2z" fill="#64AD3B"/>
<path transform="translate(503,78)" d="m0 0h2v2h-2z" fill="#64AD3B"/>
<path transform="translate(928,78)" d="m0 0h2l-1 2z" fill="#64AD3B"/>
<path transform="translate(163,758)" d="m0 0" fill="#64AD3B"/>
</svg>
